# xmcd
#
# Track frame offsets:
# 150
# 16295
# 28107
# 42167
# 61255
# 73540
# 84085
# 98302
# 110330
# 130047
# 148115
# 164272
# 178750
# 189409
# 202492
# 218030
#
# Disc length: 3058 seconds
#
#
# Revision: 0
# Processed by: cddbd v1.5.1PL2 Copyright (c) Steve Scherf et al.
# Submitted via: FreeRIP 2.944 
#
DISCID=d70bf010
DTITLE=Belmonte e Miltinho - Tibagi e Amaraí - Eternamente Ídolos
DYEAR=1900
DGENRE=Sertanejo
TTITLE0=Me equivoquei contigo
TTITLE1=Mãezinha, escreve-me
TTITLE2=Moreninha encantadora
TTITLE3=Oração a minha amada
TTITLE4=Adeus maria
TTITLE5=Triste abandono
TTITLE6=Outra noite sem meu bem
TTITLE7=Travessa da amizade
TTITLE8=Carta de filho
TTITLE9=Pedras e lixo
TTITLE10=Queira-me muito
TTITLE11=Minha terra distante
TTITLE12=Não tenho inveja
TTITLE13=Velho muquiço
TTITLE14=Eu vendo uns olhos negros
TTITLE15=Três companheiros
EXTD=
EXTT0=
EXTT1=
EXTT2=
EXTT3=
EXTT4=
EXTT5=
EXTT6=
EXTT7=
EXTT8=
EXTT9=
EXTT10=
EXTT11=
EXTT12=
EXTT13=
EXTT14=
EXTT15=
PLAYORDER=
